<?xml version="1.0" encoding="UTF-8" standalone="no"?>
<!-- Created with Inkscape (http://www.inkscape.org/) -->

<svg
   xmlns:dc="http://purl.org/dc/elements/1.1/"
   xmlns:cc="http://creativecommons.org/ns#"
   xmlns:rdf="http://www.w3.org/1999/02/22-rdf-syntax-ns#"
   xmlns:svg="http://www.w3.org/2000/svg"
   xmlns="http://www.w3.org/2000/svg"
   xmlns:sodipodi="http://sodipodi.sourceforge.net/DTD/sodipodi-0.dtd"
   xmlns:inkscape="http://www.inkscape.org/namespaces/inkscape"
   width="328.34793mm"
   height="47.889584mm"
   viewBox="0 0 328.34793 47.889584"
   version="1.1"
   id="svg8"
   inkscape:version="0.92.2 (5c3e80d, 2017-08-06)"
   sodipodi:docname="novoque-zero.svg">
  <defs
     id="defs2" />
  <sodipodi:namedview
     id="base"
     pagecolor="#ffffff"
     bordercolor="#666666"
     borderopacity="1.0"
     inkscape:pageopacity="0.0"
     inkscape:pageshadow="2"
     inkscape:zoom="0.7"
     inkscape:cx="403.38778"
     inkscape:cy="229.73023"
     inkscape:document-units="mm"
     inkscape:current-layer="layer1"
     showgrid="true"
     inkscape:window-width="1920"
     inkscape:window-height="1017"
     inkscape:window-x="-8"
     inkscape:window-y="-8"
     inkscape:window-maximized="1"
     fit-margin-top="0"
     fit-margin-left="0"
     fit-margin-right="0"
     fit-margin-bottom="0">
    <inkscape:grid
       type="xygrid"
       id="grid4751"
       originx="317.6323"
       originy="-137.45104" />
  </sodipodi:namedview>
  <metadata
     id="metadata5">
    <rdf:RDF>
      <cc:Work
         rdf:about="">
        <dc:format>image/svg+xml</dc:format>
        <dc:type
           rdf:resource="http://purl.org/dc/dcmitype/StillImage" />
        <dc:title />
      </cc:Work>
    </rdf:RDF>
  </metadata>
  <g
     inkscape:label="Layer 1"
     inkscape:groupmode="layer"
     id="layer1"
     transform="translate(317.63226,-111.65938)">
    <path
       id="path9423"
       style="fill:none;stroke:#000000;stroke-width:0.26458332px;stroke-linecap:butt;stroke-linejoin:miter;stroke-opacity:1"
       d="M -10.583304,127.66667 V 122.375 m -95.249996,10.58333 v -5.29166 m 74.08333,15.875 v -26.45834 l 5.291667,-5.29166 H 5.2916957 l 5.2916673,5.29166 v 10.58334 l -5.2916673,5.29166 5.2916673,5.29167 v 5.29167 l -5.2916673,5.29166 H -26.458303 Z m -95.25,-26.45834 5.29167,-5.29166 h 31.749995 l 5.291666,5.29166 V 154.125 l -5.291666,5.29167 h -10.583335 l -5.29166,-5.29167 v -5.29167 h -15.875 l -5.29167,-5.29166 z m -26.45833,15.875 v -5.29166 m -15.875,21.16666 -5.29167,-5.29166 v -26.45834 l 5.29167,-5.29166 h 31.75 l 5.29166,5.29166 v 26.45834 l -5.29166,5.29166 z m -31.75,-31.75 v 5.29167 m -21.16667,-5.29167 5.29167,-5.29166 h 10.58333 l 5.29167,5.29166 5.29166,-5.29166 h 10.58334 l 5.29166,5.29166 V 138.25 l -10.58333,10.58333 h -21.16667 L -222.24997,138.25 Z m -26.45833,10.58334 v 5.29166 m -21.16667,10.58334 v -26.45834 l 5.29167,-5.29166 h 31.75 l 5.29166,5.29166 v 26.45834 l -5.29166,5.29166 h -31.75 z m -42.33333,5.29166 -5.29167,-5.29166 v -26.45834 l 5.29167,-5.29166 h 10.58333 l 5.29167,5.29166 v -5.29166 h 15.875 l 5.29166,5.29166 v 26.45834 l -5.29166,5.29166 h -10.58334 l -5.29166,-5.29166 v 5.29166 z m 254.000001,-31.74999 v 13.22916 m -21.166671,-13.22917 5.29167,-5.29166 h 10.583333 l 5.29167,5.29166 5.29166,-5.29166 h 10.58334 l 5.29166,5.29166 v 26.45834 l -5.29166,5.29167 H -74.0833 l -5.29166,-5.29167 z" />
  </g>
</svg>
